<?xml version="1.0" standalone="no"?>
<!DOCTYPE svg PUBLIC "-//W3C//DTD SVG 20010904//EN"
 "http://www.w3.org/TR/2001/REC-SVG-20010904/DTD/svg10.dtd">
<svg version="1.0" xmlns="http://www.w3.org/2000/svg"
 width="206.000000pt" height="225.000000pt" viewBox="0 0 206.000000 225.000000"
 preserveAspectRatio="xMidYMid meet">

<g transform="translate(0.000000,225.000000) scale(0.100000,-0.100000)"
fill="#000000" stroke="none">
<path d="M855 2220 c-374 -68 -684 -380 -785 -789 -33 -134 -44 -277 -31 -399
28 -248 98 -428 237 -608 133 -172 289 -280 491 -340 117 -35 302 -44 415 -20
289 59 532 248 676 524 93 179 132 341 132 553 0 495 -284 913 -714 1051 -79
26 -110 30 -231 33 -77 2 -162 0 -190 -5z m295 -54 c383 -63 692 -389 774
-816 10 -51 14 -127 12 -235 -2 -137 -7 -175 -30 -260 -51 -190 -165 -387
-299 -514 -99 -94 -253 -181 -387 -217 -77 -21 -280 -28 -355 -13 -325 67
-584 298 -711 636 -47 125 -65 232 -64 396 0 306 103 561 309 768 212 212 473
301 751 255z"/>
<path d="M986 2049 c-7 -35 -8 -169 -2 -169 2 0 11 -3 20 -6 14 -5 16 3 16 55
0 34 4 61 9 61 5 0 24 -25 41 -56 18 -30 42 -59 54 -64 11 -4 22 -7 22 -6 1 0
4 44 8 97 6 86 5 97 -10 103 -25 9 -34 -10 -34 -74 l0 -55 -34 55 c-58 96 -79
110 -90 59z"/>
<path d="M605 1990 c-8 -13 83 -190 98 -190 28 0 25 14 -21 106 -43 87 -62
108 -77 84z"/>
<path d="M732 1971 c-29 -15 -31 -19 -18 -30 12 -10 20 -9 41 5 14 9 29 14 33
10 4 -4 -2 -12 -12 -18 -30 -17 -58 -48 -53 -61 2 -7 18 -20 36 -30 27 -16 34
-17 48 -6 9 8 24 13 35 11 33 -6 11 86 -29 118 -31 24 -38 24 -81 1z m68 -86
c-14 -17 -40 -20 -40 -6 0 6 10 17 22 26 26 17 37 3 18 -20z"/>
<path d="M1210 1976 c0 -9 12 -16 32 -18 48 -5 46 -25 -3 -24 -52 1 -68 -18
-48 -60 9 -18 23 -30 39 -32 14 -2 31 -9 38 -14 16 -13 16 -13 36 46 15 46 15
51 -2 80 -14 24 -26 32 -55 34 -28 2 -37 -1 -37 -12z m58 -78 c-5 -16 -58 -24
-58 -9 0 8 13 13 53 20 5 0 7 -5 5 -11z"/>
<path d="M1475 1930 c-12 -24 -20 -29 -28 -21 -21 21 -67 12 -98 -18 -37 -38
-37 -55 5 -97 53 -53 67 -47 121 52 41 77 45 88 32 102 -13 13 -17 11 -32 -18z
m-40 -49 c3 -5 -2 -26 -12 -46 -14 -29 -22 -35 -42 -33 -35 4 -38 32 -7 63 26
26 50 32 61 16z"/>
<path d="M535 1940 c-8 -14 3 -30 21 -30 8 0 14 9 14 20 0 21 -24 28 -35 10z"/>
<path d="M571 1891 c-11 -7 -7 -20 20 -65 21 -34 41 -56 51 -56 10 0 18 5 18
10 0 10 -67 120 -72 120 -2 0 -9 -4 -17 -9z"/>
<path d="M451 1881 c-12 -8 -10 -21 12 -82 15 -40 25 -75 22 -78 -3 -3 -34 9
-69 26 -54 27 -67 30 -81 19 -16 -12 -12 -19 49 -84 60 -63 70 -70 87 -59 18
11 17 14 -18 49 -42 43 -39 46 18 18 30 -16 44 -18 59 -10 18 9 18 13 4 45
-21 50 -17 60 10 28 19 -22 27 -25 45 -18 21 10 18 14 -44 83 -70 76 -72 77
-94 63z"/>
<path d="M1555 1880 c-8 -14 3 -30 21 -30 8 0 14 9 14 20 0 21 -24 28 -35 10z"/>
<path d="M1491 1797 c-27 -35 -39 -60 -35 -71 9 -25 18 -20 55 31 49 68 50 70
35 82 -12 10 -22 2 -55 -42z"/>
<path d="M1553 1748 c-39 -40 -50 -57 -43 -68 8 -12 15 -9 43 18 38 37 60 40
81 11 9 -13 21 -19 30 -16 21 8 7 49 -22 62 -11 5 -24 17 -29 27 -7 16 -15 12
-60 -34z"/>
<path d="M1167 1760 c-6 -25 -51 -27 -103 -5 -34 14 -36 14 -41 -5 -5 -20 -44
-25 -155 -20 -36 1 -50 -11 -28 -25 15 -9 12 -25 -4 -25 -29 0 -114 -54 -168
-107 -53 -52 -56 -54 -60 -32 -4 22 -6 20 -24 -16 -14 -30 -19 -62 -19 -125 0
-86 6 -105 69 -220 8 -14 19 -40 25 -59 9 -31 8 -37 -19 -67 -42 -48 -53 -96
-43 -179 7 -64 11 -71 37 -84 53 -25 108 -26 139 -1 25 20 27 26 21 66 -3 24
-2 44 2 44 25 -1 32 -19 31 -78 -2 -60 -3 -62 -32 -71 -16 -5 -55 -12 -85 -15
-66 -7 -104 -32 -108 -72 -3 -35 23 -73 96 -137 69 -61 103 -78 173 -84 56 -6
58 -5 65 22 4 15 1 44 -6 65 -12 37 -11 41 16 74 19 22 45 39 74 48 40 12 45
17 48 46 4 35 -2 35 77 11 17 -5 68 -15 115 -23 47 -8 97 -18 112 -21 36 -9
75 16 94 60 18 44 35 195 25 231 -13 49 -51 44 -113 -14 -29 -27 -60 -51 -69
-55 -18 -6 -42 16 -72 66 -17 27 -17 27 7 38 13 6 27 20 29 30 4 15 15 19 54
20 77 0 115 18 125 57 14 54 -26 152 -62 152 -14 0 -18 11 -22 55 -3 34 -13
66 -25 83 -11 15 -26 51 -32 80 -12 59 -32 102 -55 121 -10 9 -16 30 -16 60 0
29 -9 60 -23 85 -26 46 -42 55 -50 26z m33 -40 c15 -28 4 -43 -21 -30 -16 9
-17 14 -6 30 15 24 14 24 27 0z m-92 -7 l37 -16 -80 -8 c-202 -20 -345 -89
-416 -200 -18 -27 -33 -48 -34 -46 -9 11 -14 58 -6 53 5 -4 33 18 62 49 57 60
107 92 186 120 29 10 50 22 47 27 -3 4 16 8 43 8 66 0 124 11 117 21 -8 13 2
11 44 -8z m110 -121 c31 -20 60 -79 68 -140 4 -30 12 -53 21 -56 16 -7 43 -66
43 -97 0 -36 -41 -108 -85 -148 -51 -47 -138 -81 -226 -88 -82 -7 -199 13
-199 34 0 12 -3 12 -22 -1 -35 -25 -94 -20 -123 9 -32 31 -32 69 0 100 26 27
63 32 97 14 16 -8 24 -8 35 3 12 13 10 20 -11 59 -78 135 29 274 245 318 30 6
63 13 74 15 26 5 54 -3 83 -22z m-619 -124 c-1 -7 -5 -24 -9 -38 -7 -22 -8
-21 -9 13 -1 20 4 37 9 37 6 0 10 -6 9 -12z m806 -248 c3 -5 -6 -17 -21 -26
-22 -15 -27 -15 -35 -3 -6 9 -3 18 8 27 20 14 40 16 48 2z m15 -45 c0 -8 -9
-19 -20 -25 -17 -9 -20 -8 -20 9 0 17 11 28 33 30 4 1 7 -6 7 -14z m-60 -37
c27 -45 26 -68 -4 -68 -30 0 -56 34 -56 72 0 40 34 38 60 -4z m80 -3 c0 -8 -2
-15 -4 -15 -2 0 -11 -3 -20 -6 -10 -4 -16 -1 -16 9 0 14 13 24 33 26 4 1 7 -6
7 -14z m-151 -37 c7 -17 5 -26 -6 -35 -20 -16 -33 -8 -33 21 0 41 25 50 39 14z
m-511 -44 c8 -2 12 -15 10 -31 -2 -21 -11 -30 -34 -38 l-32 -10 24 -28 c28
-33 31 -59 8 -81 -33 -33 -126 -9 -137 36 -10 35 13 106 44 139 25 26 33 29
66 24 21 -4 44 -8 51 -11z m415 -69 c33 -68 35 -76 20 -81 -10 -3 -54 -23 -99
-44 -146 -69 -254 -89 -262 -47 -3 16 0 18 20 12 22 -7 23 -7 3 9 -15 12 -16
16 -5 16 12 0 11 3 -2 11 -27 15 -22 47 12 78 17 15 39 43 49 62 18 33 21 34
96 41 43 4 83 9 89 12 31 13 44 2 79 -69z m227 -76 c-6 -18 -10 -57 -10 -86 0
-54 -13 -103 -28 -103 -5 0 -3 23 4 52 17 64 18 115 2 120 -7 3 -8 9 -3 18 7
11 10 10 16 -6 7 -16 8 -15 8 7 1 14 4 29 8 32 12 12 13 1 3 -34z m34 -16
c-15 -148 -34 -203 -71 -203 -9 0 -7 6 6 19 21 21 26 44 35 150 5 55 18 91 32
91 2 0 2 -26 -2 -57z m-204 -10 c0 -4 -11 -19 -25 -33 -14 -15 -34 -48 -44
-75 -20 -53 -36 -46 -25 11 7 39 57 104 80 104 8 0 14 -3 14 -7z m130 -44 c0
-33 -3 -40 -17 -37 -22 4 -30 53 -13 73 19 22 30 8 30 -36z m-70 2 c0 -10 -17
-40 -37 -67 -20 -27 -38 -51 -39 -52 -1 -2 -12 -1 -23 3 -34 11 -24 62 22 113
26 28 77 31 77 3z m-670 -7 c0 -8 -4 -12 -10 -9 -5 3 -10 10 -10 16 0 5 5 9
10 9 6 0 10 -7 10 -16z m135 7 c3 -5 1 -12 -5 -16 -5 -3 -10 1 -10 9 0 18 6
21 15 7z m557 -93 c-6 -6 -15 -7 -21 -4 -14 9 -14 43 -1 51 6 3 11 18 11 33 1
18 5 11 11 -21 7 -33 7 -52 0 -59z m-652 78 c0 -8 -4 -18 -10 -21 -5 -3 -10 3
-10 14 0 12 5 21 10 21 6 0 10 -6 10 -14z m62 -18 c-9 -9 -12 -7 -12 12 0 19
3 21 12 12 9 -9 9 -15 0 -24z m-30 7 c0 -5 -5 -11 -11 -13 -6 -2 -11 4 -11 13
0 9 5 15 11 13 6 -2 11 -8 11 -13z m165 -65 c-1 -11 -5 -20 -10 -20 -4 0 -5
-4 -2 -10 3 -5 1 -10 -4 -10 -6 0 -11 14 -11 30 0 19 5 30 14 30 9 0 14 -9 13
-20z m423 -21 c0 -21 -7 -23 -29 -10 -12 8 -12 12 -2 25 16 19 31 12 31 -15z
m-461 -28 c12 -16 38 -35 59 -42 53 -17 57 -21 37 -36 -27 -19 -85 -16 -123 7
-27 17 -31 24 -26 47 14 64 22 68 53 24z m-59 -1 c0 -11 -4 -20 -10 -20 -5 0
-10 9 -10 20 0 11 5 20 10 20 6 0 10 -9 10 -20z m-80 -35 c0 -41 5 -50 45 -89
24 -24 61 -51 82 -61 21 -10 32 -20 25 -23 -15 -5 -94 53 -143 105 -43 44 -56
78 -39 98 21 26 30 16 30 -30z m40 36 c0 -5 -7 -14 -15 -21 -12 -10 -15 -10
-15 2 0 8 3 18 7 21 9 10 23 9 23 -2z m-90 -36 c0 -45 125 -160 206 -189 32
-12 35 -15 14 -15 -43 -1 -104 34 -172 98 -62 57 -87 99 -73 121 11 18 25 10
25 -15z m150 -56 c0 -16 -18 -10 -34 13 -26 37 -19 54 9 24 14 -15 25 -31 25
-37z"/>
<path d="M1232 1383 c-13 -27 -5 -93 14 -114 39 -43 99 -5 75 47 -6 13 -15 24
-21 24 -6 0 -10 8 -9 18 1 9 1 23 0 30 -2 18 -49 14 -59 -5z"/>
<path d="M996 1344 c-20 -20 -21 -86 -1 -124 21 -40 62 -50 86 -22 18 23 15
54 -7 73 -8 6 -14 23 -14 38 0 47 -34 65 -64 35z"/>
<path d="M1175 1270 c-3 -5 1 -10 9 -10 9 0 16 -5 16 -11 0 -5 5 -7 10 -4 6 3
10 13 10 21 0 16 -36 19 -45 4z"/>
<path d="M1204 1198 c8 -39 13 -45 28 -30 9 9 9 18 0 37 -17 37 -36 32 -28 -7z"/>
<path d="M719 1193 c-12 -15 -12 -16 5 -10 23 9 46 -9 46 -34 0 -20 -24 -26
-35 -9 -3 6 1 10 10 10 9 0 13 5 10 10 -3 6 -15 10 -26 10 -24 0 -26 -32 -3
-54 19 -20 24 -20 53 0 17 13 21 22 16 43 -11 47 -51 65 -76 34z"/>
<path d="M989 1001 c7 -5 22 -6 33 -3 11 3 24 -3 32 -13 10 -14 15 -15 21 -5
5 9 4 11 -3 6 -7 -4 -12 -3 -12 3 0 5 12 12 28 14 15 2 -4 5 -43 5 -43 1 -65
-2 -56 -7z"/>
<path d="M949 970 c-2 -25 2 -45 13 -55 8 -7 9 -6 4 3 -6 9 16 12 93 12 l101
0 0 28 c0 15 -4 22 -8 16 -4 -6 -45 -14 -91 -17 -72 -5 -87 -3 -98 11 -10 14
-13 15 -14 2z"/>
<path d="M291 764 c-13 -37 -7 -60 9 -34 5 8 11 19 13 25 2 5 15 2 30 -7 38
-26 42 1 3 30 -16 12 -33 22 -36 22 -3 0 -12 -16 -19 -36z"/>
<path d="M1703 776 c-18 -11 -33 -27 -33 -33 0 -17 11 -16 38 3 21 14 23 14
32 -10 5 -14 14 -26 20 -26 13 0 12 8 -8 51 l-17 37 -32 -22z"/>
<path d="M325 679 c-4 -12 -2 -26 4 -32 17 -17 13 -31 -4 -17 -8 7 -15 23 -15
37 0 14 -4 21 -10 18 -14 -9 -13 -58 2 -73 30 -30 78 0 58 37 -13 26 4 29 19
4 10 -16 10 -16 11 3 0 42 -53 62 -65 23z"/>
<path d="M1662 678 c-15 -15 -16 -54 -2 -63 17 -10 46 4 58 28 10 20 11 20 11
3 1 -11 -6 -28 -16 -38 -20 -22 -6 -24 25 -2 27 19 29 60 3 73 -20 11 -44 -2
-55 -29 -3 -8 -4 -3 -2 13 4 29 -3 34 -22 15z"/>
<path d="M1570 611 c0 -11 5 -23 10 -26 6 -4 10 5 10 19 0 14 -4 26 -10 26 -5
0 -10 -9 -10 -19z"/>
<path d="M400 595 c0 -8 4 -15 9 -15 5 0 11 -7 15 -15 4 -11 -3 -9 -23 6 -16
12 -33 19 -39 15 -19 -11 -19 -53 0 -76 18 -23 21 -23 46 -8 37 23 49 63 26
89 -21 23 -34 25 -34 4z m-10 -45 c8 -5 11 -12 7 -16 -4 -4 -15 0 -24 9 -18
18 -8 23 17 7z"/>
<path d="M1595 560 c-13 -26 -14 -30 -1 -30 8 0 18 9 21 20 3 11 10 20 15 20
4 0 3 -13 -3 -30 -8 -21 -8 -33 -1 -40 17 -17 58 -1 72 28 11 24 10 28 -10 44
-37 28 -75 23 -93 -12z m75 -17 c0 -5 -5 -15 -10 -23 -8 -12 -10 -11 -10 8 0
12 5 22 10 22 6 0 10 -3 10 -7z"/>
<path d="M441 494 c-32 -27 -41 -54 -17 -54 7 0 19 7 26 15 14 16 46 20 54 6
3 -4 -6 -19 -19 -31 -24 -23 -33 -50 -17 -50 13 0 50 43 52 60 5 31 -1 45 -25
62 -23 17 -25 17 -54 -8z"/>
<path d="M1523 470 c-3 -11 -10 -20 -17 -20 -6 0 -21 -11 -33 -24 l-22 -23 32
-31 c32 -31 57 -41 57 -24 0 5 -9 17 -20 27 -11 10 -20 24 -20 31 0 26 21 24
44 -3 18 -20 28 -25 36 -17 7 7 5 16 -10 29 -20 18 -26 45 -13 58 4 4 19 -5
34 -19 35 -33 60 -22 28 12 -29 31 -88 34 -96 4z"/>
<path d="M536 404 c-3 -9 -3 -21 1 -27 4 -6 0 -8 -10 -4 -12 5 -17 1 -17 -13
0 -11 -7 -20 -15 -20 -19 0 -19 -10 1 -38 26 -37 82 -22 82 23 0 5 13 16 30
25 l29 16 -23 27 c-26 30 -68 36 -78 11z m44 -34 c-9 -6 -19 -5 -25 1 -6 6 -5
13 5 19 9 6 19 5 25 -1 6 -6 5 -13 -5 -19z m-31 -66 c14 -12 -19 -1 -35 12
-18 14 -18 14 6 3 14 -6 27 -13 29 -15z"/>
<path d="M637 335 c-13 -28 -14 -40 -5 -60 6 -14 19 -25 28 -25 9 0 21 -5 26
-10 7 -7 17 5 32 35 15 32 18 46 10 51 -7 4 -14 2 -16 -4 -7 -21 -33 -42 -53
-42 -18 0 -18 1 -2 35 11 24 13 39 7 45 -7 7 -16 -1 -27 -25z"/>
<path d="M1282 358 c-16 -16 -15 -45 2 -55 7 -4 13 -19 12 -33 -1 -18 6 -27
27 -34 24 -9 31 -7 43 9 8 11 24 19 34 17 11 -2 20 2 20 7 0 6 -6 11 -14 11
-8 0 -16 10 -18 22 -4 25 -28 37 -28 14 0 -9 -5 -16 -10 -16 -6 0 -8 11 -4 25
5 20 1 26 -21 35 -32 12 -29 12 -43 -2z m34 -35 c-10 -10 -19 5 -10 18 6 11 8
11 12 0 2 -7 1 -15 -2 -18z m28 -58 c-6 -16 -24 -21 -24 -7 0 11 11 22 21 22
5 0 6 -7 3 -15z"/>
<path d="M865 288 c-3 -24 -9 -58 -12 -75 -4 -26 -2 -33 11 -33 9 0 16 8 16
19 0 21 25 51 42 51 7 0 9 -15 5 -39 -3 -27 -1 -41 8 -45 13 -5 25 22 25 60 0
26 -32 56 -51 49 -11 -4 -15 2 -14 21 0 45 -22 39 -30 -8z"/>
<path d="M760 290 c-24 -24 -25 -38 -4 -68 18 -25 64 -30 64 -7 0 11 -7 14
-25 9 -20 -5 -25 -2 -25 14 0 27 21 42 51 36 l24 -6 -24 21 c-29 26 -36 26
-61 1z"/>
<path d="M1109 264 c-18 -22 1 -50 35 -47 14 1 26 -2 26 -8 0 -5 -17 -9 -37
-9 -36 -1 -37 -2 -19 -15 27 -20 49 -19 70 4 14 16 15 23 6 41 -9 17 -17 20
-37 15 -16 -4 -22 -2 -18 5 3 5 13 10 21 10 8 0 14 5 14 10 0 16 -46 12 -61
-6z"/>
<path d="M996 251 c-23 -25 -18 -49 15 -73 28 -21 74 -17 66 5 -5 13 -11 13
-39 2 -29 -11 -21 8 12 30 l30 20 -21 18 c-27 22 -42 22 -63 -2z m39 -21 c-3
-5 -11 -10 -16 -10 -6 0 -7 5 -4 10 3 6 11 10 16 10 6 0 7 -4 4 -10z"/>
</g>
</svg>
